# xmcd CD database file
#
# Track frame offsets:
#        150
#        2580
#        29003
#        55332
#        78669
#        96928
#        118265
#        141017
#        164389
#        186141
#        205051
#        221690
#
# Disc length: 3280 seconds
#
# Revision: 0
# Processed by: cddbd v1.5.2PL0 Copyright (c) Steve Scherf et al.
# Submitted via: CUERipper 2.1.2a
#
DISCID=ab0cce0c
DTITLE=何芸妮 - 靡靡之音
DYEAR=2012
DGENRE=Jazz
TTITLE0=序
TTITLE1=忘記他
TTITLE2=風從那裡來
TTITLE3=南海姑娘
TTITLE4=雲河
TTITLE5=君心我心
TTITLE6=淚的小雨
TTITLE7=我只在乎你
TTITLE8=一個小心願
TTITLE9=初戀的地方
TTITLE10=千言萬語
TTITLE11=青鳥
EXTD=
EXTT0=
EXTT1=
EXTT2=
EXTT3=
EXTT4=
EXTT5=
EXTT6=
EXTT7=
EXTT8=
EXTT9=
EXTT10=
EXTT11=
PLAYORDER=
